<svg xmlns="http://www.w3.org/2000/svg" id="Capa_1" data-name="Capa 1" viewBox="0 0 870 778.69"><defs><style> .cls-1 { fill: #efca60; stroke-width: 0px; } </style></defs><path class="cls-1" d="m253,0c3.86.65,7.72,1.29,11.86,1.99v163.79h-58.64V63.19c-5.69,1.73-10.75,3.04-15.65,4.8-43.35,15.57-79.72,40.45-104.94,79.81-17.3,27-25.79,56.89-27.03,88.73-1.5,38.53,3.75,76.05,19.29,111.68,22.8,52.29,50.61,101.62,87.83,145.12,10.79,12.62,23.17,23.88,34.85,35.74,1.01,1.02,2.26,1.8,3.92,3.11v-207.94h-67.23v-60.33h127.6v394.05c-4.83-4.06-9.13-7.6-13.36-11.23-51.86-44.53-101.45-91.38-146.94-142.52-39.54-44.45-70.8-93.61-88.64-150.75-7.71-24.71-13.14-49.86-15.09-75.71-.07-.92-.55-1.81-.84-2.72,0-13.67,0-27.34,0-41,.29-1.09.67-2.17.85-3.28,2.42-14.75,3.84-29.75,7.38-44.22,10.1-41.25,27.8-78.72,58.83-108.64C109.13,37.32,159.49,12.99,216.9,3,224.54,1.67,232.3.98,240,0c4.33,0,8.67,0,13,0Z"></path><path class="cls-1" d="m870,276.02c-1.59,9.47-2.99,18.97-4.79,28.4-13.43,70.42-42.62,133.42-88.82,188.42-48.42,57.66-100.96,111.2-158.46,159.84-1.99,1.68-4.04,3.28-6.64,5.38V2.19c10.91,0,21.75-.67,32.47.11,56.45,4.13,106.45,24.51,149.07,61.74,29.48,25.76,51.91,56.62,62.39,95.08.26.96.54,1.92.75,2.9.32,1.45.59,2.92,1,4.99h-9.51c-16.16,0-32.33-.13-48.49.09-3.84.05-5.71-1.11-7.61-4.56-27.45-49.95-68.16-83.61-123.16-99.51-1.25-.36-2.55-.55-4.03-.86v469.76c1-.77,1.66-1.14,2.14-1.67,38.42-43.02,75.36-87.22,106.02-136.26,10.78-17.24,20.64-34.99,25.95-54.84.64-2.41,1.12-4.86,1.58-7.31.15-.79.02-1.64.02-3.68h-75.51v-61.67h6.23c44.33,0,88.65,0,132.98-.02,2.14,0,4.28-.31,6.42-.47v10Z"></path><path class="cls-1" d="m437.16,201.27c-25.53-32.27-50.66-64.1-83.16-90.9v6.05c0,176.17.01,352.33-.08,528.5,0,3.71.99,5.98,4.1,8.2,25.92,18.45,51.69,37.1,77.81,55.91,1.31-.87,2.68-1.72,3.98-2.67,24.63-17.96,49.28-35.88,73.8-53.99,1.67-1.24,3.25-3.91,3.25-5.92.16-82,.14-164,.13-246,0-.83-.11-1.65-.2-3.01h-76.19v-56.93h134.41v5.46c0,109.33-.02,218.67.08,328,0,3.52-.94,5.71-3.84,7.83-43.26,31.7-86.45,63.5-129.57,95.4-2.61,1.93-4.29,2-6.9.1-43.43-31.74-86.91-63.43-130.49-94.97-3.01-2.18-3.15-4.61-3.15-7.67.03-129.33.03-258.66.03-387.99,0-87.33,0-174.65,0-261.98v-7.01c58.63,13.17,100.85,48.72,136.78,93.92,35.86-45.31,75.55-84.69,136.65-93.91v152.77h-56.57v-59.15c-.5-.36-1.01-.72-1.51-1.08-6.63,5.87-14.07,11.06-19.74,17.75-18.71,22.1-36.78,44.75-55.07,67.2-1.47,1.8-2.79,3.72-4.56,6.09Z"></path></svg>